<?xml version="1.0" standalone="no"?>
<svg xmlns="http://www.w3.org/2000/svg" xmlns:xlink="http://www.w3.org/1999/xlink" width="575pt" height="2006pt" viewBox="0.00 0.00 574.58 2006.00">
<g id="graph0" class="graph" transform="translate(4,2002) scale(1)" data-name="G">

<polygon fill="#2e3e56" stroke="none" points="-4,4 -4,-2002 570.58,-2002 570.58,4 -4,4" style=""/>
<g id="clust1" class="cluster" data-name="clusterStudentAttendance">

<path fill="#445773" stroke="#445773" d="M20,-340C20,-340 541.24,-340 541.24,-340 547.24,-340 553.24,-346 553.24,-352 553.24,-352 553.24,-1841 553.24,-1841 553.24,-1847 547.24,-1853 541.24,-1853 541.24,-1853 20,-1853 20,-1853 14,-1853 8,-1847 8,-1841 8,-1841 8,-352 8,-352 8,-346 14,-340 20,-340" style=""/>
<text text-anchor="middle" x="280.62" y="-1836.4" font-family="Times,serif" font-size="14.00" fill="#f0f0f0" style="">StudentAttendance</text>
</g>
<g id="clust2" class="cluster" data-name="clusterOwnable">

<path fill="#3b4b63" stroke="#e8726d" stroke-dasharray="5,2" d="M349.1,-147C349.1,-147 546.58,-147 546.58,-147 552.58,-147 558.58,-153 558.58,-159 558.58,-159 558.58,-320 558.58,-320 558.58,-326 552.58,-332 546.58,-332 546.58,-332 349.1,-332 349.1,-332 343.1,-332 337.1,-326 337.1,-320 337.1,-320 337.1,-159 337.1,-159 337.1,-153 343.1,-147 349.1,-147" style=""/>
<text text-anchor="middle" x="447.84" y="-315.4" font-family="Times,serif" font-size="14.00" fill="#f0f0f0" style="">Ownable</text>
</g>
<g id="clust3" class="cluster" data-name="clusterCounters.Counter">

<path fill="#3b4b63" stroke="#e8726d" stroke-dasharray="5,2" d="M402.2,-8C402.2,-8 493.49,-8 493.49,-8 499.49,-8 505.49,-14 505.49,-20 505.49,-20 505.49,-127 505.49,-127 505.49,-133 499.49,-139 493.49,-139 493.49,-139 402.2,-139 402.2,-139 396.2,-139 390.2,-133 390.2,-127 390.2,-127 390.2,-20 390.2,-20 390.2,-14 396.2,-8 402.2,-8" style=""/>
<text text-anchor="middle" x="447.84" y="-122.4" font-family="Times,serif" font-size="14.00" fill="#f0f0f0" style="">Counters.Counter</text>
</g>
<g id="clust4" class="cluster" data-name="cluster_01">

<polygon fill="#2e3e56" stroke="black" points="89.55,-1861 89.55,-1990 482.84,-1990 482.84,-1861 89.55,-1861" style=""/>
<text text-anchor="middle" x="286.2" y="-1973.4" font-family="Times,serif" font-size="14.00" style="">Legend</text>
</g>
<!-- StudentAttendance.&lt;Constructor&gt; -->
<g id="node1" class="node" pointer-events="visible" data-name="StudentAttendance.&lt;Constructor&gt;">

<ellipse fill="#ff9797" stroke="#ff9797" stroke-width="3" cx="162.55" cy="-1802" rx="67.55" ry="18" style=""/>
<text text-anchor="middle" x="162.55" y="-1797.8" font-family="Times,serif" font-size="14.00" style="">&lt;Constructor&gt;</text>
</g>
<!-- StudentAttendance._setupRole -->
<g id="node29" class="node" pointer-events="visible" data-name="StudentAttendance._setupRole">

<ellipse fill="#edad56" stroke="#edad56" stroke-width="3" cx="447.84" cy="-1802" rx="54.48" ry="18" style=""/>
<text text-anchor="middle" x="447.84" y="-1797.8" font-family="Times,serif" font-size="14.00" style="">_setupRole</text>
</g>
<!-- StudentAttendance.&lt;Constructor&gt;&#45;&gt;StudentAttendance._setupRole -->
<g id="edge1" class="edge" data-name="StudentAttendance.&lt;Constructor&gt;-&gt;StudentAttendance._setupRole">

<path fill="none" stroke="#1bc6a6" stroke-width="2" d="M231.41,-1802C276.1,-1802 334.4,-1802 379.08,-1802" style=""/>
<polygon fill="#1bc6a6" stroke="#1bc6a6" stroke-width="2" points="378.85,-1805.5 388.85,-1802 378.85,-1798.5 378.85,-1805.5" style=""/>
</g>
<!-- StudentAttendance.supportsInterface -->
<g id="node2" class="node" pointer-events="visible" data-name="StudentAttendance.supportsInterface">

<ellipse fill="#ff9797" stroke="#ff9797" stroke-width="3" cx="162.55" cy="-690" rx="78.14" ry="18" style=""/>
<text text-anchor="middle" x="162.55" y="-685.8" font-family="Times,serif" font-size="14.00" style="">supportsInterface</text>
</g>
<!-- Ownable.supportsInterface -->
<g id="node36" class="node" pointer-events="visible" data-name="Ownable.supportsInterface">

<ellipse fill="#edad56" stroke="#edad56" stroke-width="3" cx="447.84" cy="-281" rx="78.14" ry="18" style=""/>
<text text-anchor="middle" x="447.84" y="-276.8" font-family="Times,serif" font-size="14.00" style="">supportsInterface</text>
</g>
<!-- StudentAttendance.supportsInterface&#45;&gt;Ownable.supportsInterface -->
<g id="edge2" class="edge" data-name="StudentAttendance.supportsInterface-&gt;Ownable.supportsInterface">

<path fill="none" stroke="white" stroke-width="2" d="M240.98,-693.31C266.12,-690.24 291.93,-681.95 309.1,-663 358.09,-608.96 296.18,-396.37 337.1,-336 347.84,-320.16 364.55,-308.67 381.71,-300.42" style=""/>
<polygon fill="white" stroke="white" stroke-width="2" points="383.07,-303.65 390.83,-296.43 380.26,-297.23 383.07,-303.65" style=""/>
</g>
<!-- StudentAttendance.getInstructorId -->
<g id="node3" class="node" pointer-events="visible" data-name="StudentAttendance.getInstructorId">

<ellipse fill="#f2c383" stroke="#f2c383" stroke-width="3" cx="162.55" cy="-1694" rx="68.34" ry="18" style=""/>
<text text-anchor="middle" x="162.55" y="-1689.8" font-family="Times,serif" font-size="14.00" style="">getInstructorId</text>
</g>
<!-- StudentAttendance.getInstitutionId -->
<g id="node4" class="node" pointer-events="visible" data-name="StudentAttendance.getInstitutionId">

<ellipse fill="#edad56" stroke="#edad56" stroke-width="3" cx="447.84" cy="-528" rx="70.66" ry="18" style=""/>
<text text-anchor="middle" x="447.84" y="-523.8" font-family="Times,serif" font-size="14.00" style="">getInstitutionId</text>
</g>
<!-- StudentAttendance.getLearnerId -->
<g id="node5" class="node" pointer-events="visible" data-name="StudentAttendance.getLearnerId">

<ellipse fill="#f2c383" stroke="#f2c383" stroke-width="3" cx="162.55" cy="-1640" rx="60.79" ry="18" style=""/>
<text text-anchor="middle" x="162.55" y="-1635.8" font-family="Times,serif" font-size="14.00" style="">getLearnerId</text>
</g>
<!-- StudentAttendance.registerLearner -->
<g id="node6" class="node" pointer-events="visible" data-name="StudentAttendance.registerLearner">

<ellipse fill="#ffbdb9" stroke="#ffbdb9" stroke-width="3" cx="162.55" cy="-528" rx="70.02" ry="18" style=""/>
<text text-anchor="middle" x="162.55" y="-523.8" font-family="Times,serif" font-size="14.00" style="">registerLearner</text>
</g>
<!-- StudentAttendance.registerLearner&#45;&gt;StudentAttendance.getInstitutionId -->
<g id="edge3" class="edge" data-name="StudentAttendance.registerLearner-&gt;StudentAttendance.getInstitutionId">

<path fill="none" stroke="#1bc6a6" stroke-width="2" d="M233.94,-528C272.98,-528 321.78,-528 362.81,-528" style=""/>
<polygon fill="#1bc6a6" stroke="#1bc6a6" stroke-width="2" points="362.8,-531.5 372.8,-528 362.8,-524.5 362.8,-531.5" style=""/>
</g>
<!-- Counters.Counter.current -->
<g id="node39" class="node" pointer-events="visible" data-name="Counters.Counter.current">

<ellipse fill="#edad56" stroke="#edad56" stroke-width="3" cx="447.84" cy="-34" rx="38.26" ry="18" style=""/>
<text text-anchor="middle" x="447.84" y="-29.8" font-family="Times,serif" font-size="14.00" style="">current</text>
</g>
<!-- StudentAttendance.registerLearner&#45;&gt;Counters.Counter.current -->
<g id="edge4" class="edge" data-name="StudentAttendance.registerLearner-&gt;Counters.Counter.current">

<path fill="none" stroke="white" stroke-width="2" d="M232.15,-532.4C260.03,-530.33 290.09,-522.44 309.1,-501 374.11,-427.7 274.25,-136.15 337.1,-61 351.28,-44.05 374.22,-36.79 395.48,-33.97" style=""/>
<polygon fill="white" stroke="white" stroke-width="2" points="395.76,-37.46 405.38,-33.03 395.1,-30.49 395.76,-37.46" style=""/>
</g>
<!-- Counters.Counter.increment -->
<g id="node40" class="node" pointer-events="visible" data-name="Counters.Counter.increment">

<ellipse fill="#edad56" stroke="#edad56" stroke-width="3" cx="447.84" cy="-88" rx="49.79" ry="18" style=""/>
<text text-anchor="middle" x="447.84" y="-83.8" font-family="Times,serif" font-size="14.00" style="">increment</text>
</g>
<!-- StudentAttendance.registerLearner&#45;&gt;Counters.Counter.increment -->
<g id="edge5" class="edge" data-name="StudentAttendance.registerLearner-&gt;Counters.Counter.increment">

<path fill="none" stroke="white" stroke-width="2" d="M232,-532.26C259.85,-530.17 289.94,-522.3 309.1,-501 362.48,-441.68 292.57,-209.21 337.1,-143 349.98,-123.86 371.59,-111.07 392.24,-102.69" style=""/>
<polygon fill="white" stroke="white" stroke-width="2" points="393.23,-106.05 401.38,-99.3 390.79,-99.49 393.23,-106.05" style=""/>
</g>
<!-- StudentAttendance.registerInstructor -->
<g id="node7" class="node" pointer-events="visible" data-name="StudentAttendance.registerInstructor">

<ellipse fill="#ffbdb9" stroke="#ffbdb9" stroke-width="3" cx="162.55" cy="-474" rx="77.57" ry="18" style=""/>
<text text-anchor="middle" x="162.55" y="-469.8" font-family="Times,serif" font-size="14.00" style="">registerInstructor</text>
</g>
<!-- StudentAttendance.registerInstructor&#45;&gt;StudentAttendance.getInstitutionId -->
<g id="edge6" class="edge" data-name="StudentAttendance.registerInstructor-&gt;StudentAttendance.getInstitutionId">

<path fill="none" stroke="#1bc6a6" stroke-width="2" d="M226.27,-485.49C251.95,-490.23 281.97,-495.82 309.1,-501 331.22,-505.22 355.3,-509.91 377.06,-514.18" style=""/>
<polygon fill="#1bc6a6" stroke="#1bc6a6" stroke-width="2" points="376.11,-517.56 386.6,-516.05 377.46,-510.69 376.11,-517.56" style=""/>
</g>
<!-- StudentAttendance.registerInstructor&#45;&gt;Counters.Counter.current -->
<g id="edge7" class="edge" data-name="StudentAttendance.registerInstructor-&gt;Counters.Counter.current">

<path fill="none" stroke="white" stroke-width="2" d="M239.98,-477.57C265.49,-474.63 291.8,-466.34 309.1,-447 366.45,-382.91 281.64,-126.72 337.1,-61 351.3,-44.18 374.14,-36.91 395.31,-34.06" style=""/>
<polygon fill="white" stroke="white" stroke-width="2" points="395.56,-37.55 405.18,-33.1 394.88,-30.59 395.56,-37.55" style=""/>
</g>
<!-- StudentAttendance.registerInstructor&#45;&gt;Counters.Counter.increment -->
<g id="edge8" class="edge" data-name="StudentAttendance.registerInstructor-&gt;Counters.Counter.increment">

<path fill="none" stroke="white" stroke-width="2" d="M240.15,-477.34C265.52,-474.34 291.7,-466.08 309.1,-447 354.83,-396.88 298.85,-199.03 337.1,-143 350.11,-123.95 371.74,-111.17 392.38,-102.77" style=""/>
<polygon fill="white" stroke="white" stroke-width="2" points="393.35,-106.15 401.5,-99.38 390.91,-99.59 393.35,-106.15" style=""/>
</g>
<!-- StudentAttendance.registerInstitution -->
<g id="node8" class="node" pointer-events="visible" data-name="StudentAttendance.registerInstitution">

<ellipse fill="#ffbdb9" stroke="#ffbdb9" stroke-width="3" cx="162.55" cy="-366" rx="79.89" ry="18" style=""/>
<text text-anchor="middle" x="162.55" y="-361.8" font-family="Times,serif" font-size="14.00" style="">registerInstitution</text>
</g>
<!-- StudentAttendance.registerInstitution&#45;&gt;Counters.Counter.current -->
<g id="edge9" class="edge" data-name="StudentAttendance.registerInstitution-&gt;Counters.Counter.current">

<path fill="none" stroke="white" stroke-width="2" d="M167.64,-346.67C181.7,-290.93 233.11,-130.63 337.1,-52 354.31,-38.99 376.97,-32.18 397.23,-29.35" style=""/>
<polygon fill="white" stroke="white" stroke-width="2" points="397.51,-32.84 407.11,-28.35 396.8,-25.87 397.51,-32.84" style=""/>
</g>
<!-- StudentAttendance.registerInstitution&#45;&gt;Counters.Counter.current -->
<g id="edge10" class="edge" data-name="StudentAttendance.registerInstitution-&gt;Counters.Counter.current">

<path fill="none" stroke="white" stroke-width="2" d="M169.98,-346.69C186.87,-293.4 238.21,-144.77 337.1,-70 355.12,-56.38 379.12,-49.55 400.08,-45.34" style=""/>
<polygon fill="white" stroke="white" stroke-width="2" points="400.49,-48.82 409.69,-43.57 399.22,-41.94 400.49,-48.82" style=""/>
</g>
<!-- StudentAttendance.registerInstitution&#45;&gt;Counters.Counter.increment -->
<g id="edge11" class="edge" data-name="StudentAttendance.registerInstitution-&gt;Counters.Counter.increment">

<path fill="none" stroke="white" stroke-width="2" d="M174.31,-346.97C198.62,-305.32 261.63,-204.92 337.1,-143 355.41,-127.99 378.49,-115.65 398.75,-106.49" style=""/>
<polygon fill="white" stroke="white" stroke-width="2" points="400.06,-109.73 407.84,-102.54 397.28,-103.31 400.06,-109.73" style=""/>
</g>
<!-- StudentAttendance.addInstructorToInstitution -->
<g id="node9" class="node" pointer-events="visible" data-name="StudentAttendance.addInstructorToInstitution">

<ellipse fill="#ffbdb9" stroke="#ffbdb9" stroke-width="3" cx="162.55" cy="-1424" rx="112.91" ry="18" style=""/>
<text text-anchor="middle" x="162.55" y="-1419.8" font-family="Times,serif" font-size="14.00" style="">addInstructorToInstitution</text>
</g>
<!-- StudentAttendance.checkInstructorProgramAccess -->
<g id="node10" class="node" pointer-events="visible" data-name="StudentAttendance.checkInstructorProgramAccess">

<polygon fill="#edad56" stroke="#1bc6a6" stroke-width="3" points="305.16,-1358.54 305.16,-1373.46 221.62,-1384 103.48,-1384 19.95,-1373.46 19.95,-1358.54 103.48,-1348 221.62,-1348 305.16,-1358.54" style=""/>
<polygon fill="none" stroke="#1bc6a6" stroke-width="3" points="309.16,-1355.02 309.16,-1376.98 221.87,-1388 103.23,-1388 15.95,-1376.98 15.95,-1355.02 103.23,-1344 221.87,-1344 309.16,-1355.02" style=""/>
<text text-anchor="middle" x="162.55" y="-1361.8" font-family="Times,serif" font-size="14.00" style="">checkInstructorProgramAccess</text>
</g>
<!-- StudentAttendance.createProgram -->
<g id="node11" class="node" pointer-events="visible" data-name="StudentAttendance.createProgram">

<ellipse fill="#ffbdb9" stroke="#ffbdb9" stroke-width="3" cx="162.55" cy="-420" rx="67.17" ry="18" style=""/>
<text text-anchor="middle" x="162.55" y="-415.8" font-family="Times,serif" font-size="14.00" style="">createProgram</text>
</g>
<!-- StudentAttendance._mint -->
<g id="node30" class="node" pointer-events="visible" data-name="StudentAttendance._mint">

<ellipse fill="#edad56" stroke="#edad56" stroke-width="3" cx="447.84" cy="-420" rx="33.64" ry="18" style=""/>
<text text-anchor="middle" x="447.84" y="-415.8" font-family="Times,serif" font-size="14.00" style="">_mint</text>
</g>
<!-- StudentAttendance.createProgram&#45;&gt;StudentAttendance._mint -->
<g id="edge14" class="edge" data-name="StudentAttendance.createProgram-&gt;StudentAttendance._mint">

<path fill="none" stroke="#1bc6a6" stroke-width="2" d="M231.05,-420C283.18,-420 353.98,-420 400.03,-420" style=""/>
<polygon fill="#1bc6a6" stroke="#1bc6a6" stroke-width="2" points="399.88,-423.5 409.88,-420 399.88,-416.5 399.88,-423.5" style=""/>
</g>
<!-- StudentAttendance.createProgram&#45;&gt;Counters.Counter.current -->
<g id="edge12" class="edge" data-name="StudentAttendance.createProgram-&gt;Counters.Counter.current">

<path fill="none" stroke="white" stroke-width="2" d="M199.87,-403.66C233.42,-399.29 282.02,-395.91 309.1,-366 358.8,-311.11 289.02,-90.3 337.1,-34 357.4,-10.24 394.9,-5.59 420.36,-11.97" style=""/>
<polygon fill="white" stroke="white" stroke-width="2" points="418.97,-15.19 429.57,-15.25 421.32,-8.6 418.97,-15.19" style=""/>
</g>
<!-- StudentAttendance.createProgram&#45;&gt;Counters.Counter.current -->
<g id="edge13" class="edge" data-name="StudentAttendance.createProgram-&gt;Counters.Counter.current">

<path fill="none" stroke="white" stroke-width="2" d="M229.7,-416.17C258.15,-413.52 289.35,-405.81 309.1,-384 358.8,-329.11 289.02,-108.3 337.1,-52 352.39,-34.1 377.45,-27.05 399.76,-25.53" style=""/>
<polygon fill="white" stroke="white" stroke-width="2" points="399.54,-29.04 409.46,-25.31 399.38,-22.04 399.54,-29.04" style=""/>
</g>
<!-- StudentAttendance.createProgram&#45;&gt;Counters.Counter.current -->
<g id="edge15" class="edge" data-name="StudentAttendance.createProgram-&gt;Counters.Counter.current">

<path fill="none" stroke="white" stroke-width="2" d="M215.11,-432.54C246.91,-433.78 285.9,-427.63 309.1,-402 358.8,-347.11 289.02,-126.3 337.1,-70 351.89,-52.68 375.83,-45.52 397.58,-42.02" style=""/>
<polygon fill="white" stroke="white" stroke-width="2" points="397.95,-45.5 407.39,-40.7 397.02,-38.57 397.95,-45.5" style=""/>
</g>
<!-- StudentAttendance.createProgram&#45;&gt;Counters.Counter.current -->
<g id="edge16" class="edge" data-name="StudentAttendance.createProgram-&gt;Counters.Counter.current">

<path fill="none" stroke="white" stroke-width="2" d="M181.05,-438.72C212.03,-453.54 276.33,-456.2 309.1,-420 358.8,-365.11 289.02,-144.3 337.1,-88 356.11,-65.74 390.24,-60.26 415.4,-54.21" style=""/>
<polygon fill="white" stroke="white" stroke-width="2" points="416.31,-57.59 425.04,-51.59 414.47,-50.84 416.31,-57.59" style=""/>
</g>
<!-- StudentAttendance.createProgram&#45;&gt;Counters.Counter.increment -->
<g id="edge17" class="edge" data-name="StudentAttendance.createProgram-&gt;Counters.Counter.increment">

<path fill="none" stroke="white" stroke-width="2" d="M229.43,-415.92C257.83,-413.22 289.06,-405.54 309.1,-384 385.27,-302.15 273.16,-225.71 337.1,-134 348.9,-117.08 367.47,-105.09 386,-97.21" style=""/>
<polygon fill="white" stroke="white" stroke-width="2" points="387.16,-100.51 395.27,-93.69 384.67,-93.97 387.16,-100.51" style=""/>
</g>
<!-- StudentAttendance.createProgram&#45;&gt;Counters.Counter.increment -->
<g id="edge18" class="edge" data-name="StudentAttendance.createProgram-&gt;Counters.Counter.increment">

<path fill="none" stroke="white" stroke-width="2" d="M215.58,-432.35C247.15,-433.38 285.73,-427.12 309.1,-402 385.27,-320.15 273.16,-243.71 337.1,-152 352.34,-130.14 378.87,-116.52 402.03,-107.25" style=""/>
<polygon fill="white" stroke="white" stroke-width="2" points="403.18,-110.56 411.28,-103.73 400.68,-104.01 403.18,-110.56" style=""/>
</g>
<!-- StudentAttendance.setTokenMetadata -->
<g id="node12" class="node" pointer-events="visible" data-name="StudentAttendance.setTokenMetadata">

<ellipse fill="#ffbdb9" stroke="#ffbdb9" stroke-width="3" cx="162.55" cy="-1254" rx="82.22" ry="18" style=""/>
<text text-anchor="middle" x="162.55" y="-1249.8" font-family="Times,serif" font-size="14.00" style="">setTokenMetadata</text>
</g>
<!-- StudentAttendance.registerForProgram -->
<g id="node13" class="node" pointer-events="visible" data-name="StudentAttendance.registerForProgram">

<ellipse fill="#ffbdb9" stroke="#ffbdb9" stroke-width="3" cx="162.55" cy="-1200" rx="86.83" ry="18" style=""/>
<text text-anchor="middle" x="162.55" y="-1195.8" font-family="Times,serif" font-size="14.00" style="">registerForProgram</text>
</g>
<!-- StudentAttendance.isTransferable -->
<g id="node14" class="node" pointer-events="visible" data-name="StudentAttendance.isTransferable">

<polygon fill="#edad56" stroke="#1bc6a6" stroke-width="3" points="234.49,-1134.54 234.49,-1149.46 192.35,-1160 132.75,-1160 90.61,-1149.46 90.61,-1134.54 132.75,-1124 192.35,-1124 234.49,-1134.54" style=""/>
<polygon fill="none" stroke="#1bc6a6" stroke-width="3" points="238.51,-1131.42 238.51,-1152.58 192.85,-1164 132.26,-1164 86.6,-1152.58 86.6,-1131.42 132.26,-1120 192.85,-1120 238.51,-1131.42" style=""/>
<text text-anchor="middle" x="162.55" y="-1137.8" font-family="Times,serif" font-size="14.00" style="">isTransferable</text>
</g>
<!-- StudentAttendance.onlyInstitution -->
<g id="node15" class="node" pointer-events="visible" data-name="StudentAttendance.onlyInstitution">

<polygon fill="#edad56" stroke="#1bc6a6" stroke-width="3" points="236.06,-740.54 236.06,-755.46 193,-766 132.11,-766 89.05,-755.46 89.05,-740.54 132.11,-730 193,-730 236.06,-740.54" style=""/>
<polygon fill="none" stroke="#1bc6a6" stroke-width="3" points="240.06,-737.41 240.06,-758.59 193.48,-770 131.62,-770 85.05,-758.59 85.05,-737.41 131.62,-726 193.48,-726 240.06,-737.41" style=""/>
<text text-anchor="middle" x="162.55" y="-743.8" font-family="Times,serif" font-size="14.00" style="">onlyInstitution</text>
</g>
<!-- StudentAttendance.onlyInstitution&#45;&gt;StudentAttendance.getInstitutionId -->
<g id="edge19" class="edge" data-name="StudentAttendance.onlyInstitution-&gt;StudentAttendance.getInstitutionId">

<path fill="none" stroke="#1bc6a6" stroke-width="2" d="M241.29,-742.13C264.49,-737.66 289.05,-730.01 309.1,-717 369.87,-677.58 412.83,-601.33 433.3,-558.71" style=""/>
<polygon fill="#1bc6a6" stroke="#1bc6a6" stroke-width="2" points="436.36,-560.43 437.41,-549.89 430.01,-557.47 436.36,-560.43" style=""/>
</g>
<!-- StudentAttendance.onlyInstructor -->
<g id="node16" class="node" pointer-events="visible" data-name="StudentAttendance.onlyInstructor">

<polygon fill="#edad56" stroke="#1bc6a6" stroke-width="3" points="233.87,-1018.54 233.87,-1033.46 192.09,-1044 133.01,-1044 91.23,-1033.46 91.23,-1018.54 133.01,-1008 192.09,-1008 233.87,-1018.54" style=""/>
<polygon fill="none" stroke="#1bc6a6" stroke-width="3" points="237.88,-1015.43 237.88,-1036.57 192.59,-1048 132.51,-1048 87.22,-1036.57 87.22,-1015.43 132.51,-1004 192.59,-1004 237.88,-1015.43" style=""/>
<text text-anchor="middle" x="162.55" y="-1021.8" font-family="Times,serif" font-size="14.00" style="">onlyInstructor</text>
</g>
<!-- StudentAttendance.checkIsRegisteredForProgram -->
<g id="node17" class="node" pointer-events="visible" data-name="StudentAttendance.checkIsRegisteredForProgram">

<ellipse fill="#ffbdb9" stroke="#ffbdb9" stroke-width="3" cx="162.55" cy="-968" rx="128.49" ry="18" style=""/>
<text text-anchor="middle" x="162.55" y="-963.8" font-family="Times,serif" font-size="14.00" style="">checkIsRegisteredForProgram</text>
</g>
<!-- StudentAttendance.addLearnerToPorgram -->
<g id="node18" class="node" pointer-events="visible" data-name="StudentAttendance.addLearnerToPorgram">

<ellipse fill="#ffbdb9" stroke="#ffbdb9" stroke-width="3" cx="162.55" cy="-914" rx="98.96" ry="18" style=""/>
<text text-anchor="middle" x="162.55" y="-909.8" font-family="Times,serif" font-size="14.00" style="">addLearnerToPorgram</text>
</g>
<!-- StudentAttendance.grantMinterBurnerRole -->
<g id="node19" class="node" pointer-events="visible" data-name="StudentAttendance.grantMinterBurnerRole">

<ellipse fill="#f2c383" stroke="#f2c383" stroke-width="3" cx="162.55" cy="-1748" rx="102.43" ry="18" style=""/>
<text text-anchor="middle" x="162.55" y="-1743.8" font-family="Times,serif" font-size="14.00" style="">grantMinterBurnerRole</text>
</g>
<!-- StudentAttendance.grantRole -->
<g id="node31" class="node" pointer-events="visible" data-name="StudentAttendance.grantRole">

<ellipse fill="#edad56" stroke="#edad56" stroke-width="3" cx="447.84" cy="-1667" rx="49.23" ry="18" style=""/>
<text text-anchor="middle" x="447.84" y="-1662.8" font-family="Times,serif" font-size="14.00" style="">grantRole</text>
</g>
<!-- StudentAttendance.grantMinterBurnerRole&#45;&gt;StudentAttendance.grantRole -->
<g id="edge20" class="edge" data-name="StudentAttendance.grantMinterBurnerRole-&gt;StudentAttendance.grantRole">

<path fill="none" stroke="#1bc6a6" stroke-width="2" d="M220.47,-1731.87C247.59,-1726.56 280.32,-1720.23 309.1,-1712 337.65,-1703.84 368.5,-1692.04 393.75,-1682.38" style=""/>
<polygon fill="#1bc6a6" stroke="#1bc6a6" stroke-width="2" points="394.74,-1685.75 402.83,-1678.91 392.24,-1679.21 394.74,-1685.75" style=""/>
</g>
<!-- StudentAttendance.grantMinterBurnerRole&#45;&gt;StudentAttendance.grantRole -->
<g id="edge21" class="edge" data-name="StudentAttendance.grantMinterBurnerRole-&gt;StudentAttendance.grantRole">

<path fill="none" stroke="#1bc6a6" stroke-width="2" d="M260.45,-1741.56C276.82,-1738.35 293.54,-1734.45 309.1,-1730 345.24,-1719.67 385.08,-1703.5 412.57,-1689.87" style=""/>
<polygon fill="#1bc6a6" stroke="#1bc6a6" stroke-width="2" points="413.95,-1693.09 421.22,-1685.4 410.73,-1686.88 413.95,-1693.09" style=""/>
</g>
<!-- StudentAttendance.grantMinterRole -->
<g id="node20" class="node" pointer-events="visible" data-name="StudentAttendance.grantMinterRole">

<ellipse fill="#ffbdb9" stroke="#ffbdb9" stroke-width="3" cx="162.55" cy="-1586" rx="75.3" ry="18" style=""/>
<text text-anchor="middle" x="162.55" y="-1581.8" font-family="Times,serif" font-size="14.00" style="">grantMinterRole</text>
</g>
<!-- StudentAttendance.grantMinterRole&#45;&gt;StudentAttendance.grantRole -->
<g id="edge22" class="edge" data-name="StudentAttendance.grantMinterRole-&gt;StudentAttendance.grantRole">

<path fill="none" stroke="#1bc6a6" stroke-width="2" d="M229.38,-1595.48C254.57,-1599.82 283.41,-1605.65 309.1,-1613 341.23,-1622.19 376.27,-1635.98 402.97,-1647.32" style=""/>
<polygon fill="#1bc6a6" stroke="#1bc6a6" stroke-width="2" points="401.26,-1650.4 411.83,-1651.14 404.03,-1643.97 401.26,-1650.4" style=""/>
</g>
<!-- StudentAttendance.grantBurnerRole -->
<g id="node21" class="node" pointer-events="visible" data-name="StudentAttendance.grantBurnerRole">

<ellipse fill="#ffbdb9" stroke="#ffbdb9" stroke-width="3" cx="162.55" cy="-1532" rx="75.87" ry="18" style=""/>
<text text-anchor="middle" x="162.55" y="-1527.8" font-family="Times,serif" font-size="14.00" style="">grantBurnerRole</text>
</g>
<!-- StudentAttendance.grantBurnerRole&#45;&gt;StudentAttendance.grantRole -->
<g id="edge23" class="edge" data-name="StudentAttendance.grantBurnerRole-&gt;StudentAttendance.grantRole">

<path fill="none" stroke="#1bc6a6" stroke-width="2" d="M235.59,-1538.37C259.71,-1542.31 286.27,-1548.69 309.1,-1559 352.57,-1578.63 394.51,-1614.78 420.46,-1639.82" style=""/>
<polygon fill="#1bc6a6" stroke="#1bc6a6" stroke-width="2" points="417.86,-1642.17 427.44,-1646.69 422.77,-1637.18 417.86,-1642.17" style=""/>
</g>
<!-- StudentAttendance.revokeMinterRole -->
<g id="node22" class="node" pointer-events="visible" data-name="StudentAttendance.revokeMinterRole">

<ellipse fill="#ffbdb9" stroke="#ffbdb9" stroke-width="3" cx="162.55" cy="-1308" rx="81.66" ry="18" style=""/>
<text text-anchor="middle" x="162.55" y="-1303.8" font-family="Times,serif" font-size="14.00" style="">revokeMinterRole</text>
</g>
<!-- StudentAttendance.revokeRole -->
<g id="node32" class="node" pointer-events="visible" data-name="StudentAttendance.revokeRole">

<ellipse fill="#edad56" stroke="#edad56" stroke-width="3" cx="447.84" cy="-1393" rx="55.6" ry="18" style=""/>
<text text-anchor="middle" x="447.84" y="-1388.8" font-family="Times,serif" font-size="14.00" style="">revokeRole</text>
</g>
<!-- StudentAttendance.revokeMinterRole&#45;&gt;StudentAttendance.revokeRole -->
<g id="edge24" class="edge" data-name="StudentAttendance.revokeMinterRole-&gt;StudentAttendance.revokeRole">

<path fill="none" stroke="#1bc6a6" stroke-width="2" d="M233.87,-1317.9C257.99,-1322.12 284.98,-1327.77 309.1,-1335 341.44,-1344.68 376.47,-1359.5 403.12,-1371.73" style=""/>
<polygon fill="#1bc6a6" stroke="#1bc6a6" stroke-width="2" points="401.45,-1374.82 411.99,-1375.87 404.4,-1368.47 401.45,-1374.82" style=""/>
</g>
<!-- StudentAttendance.revokeBurnerRole -->
<g id="node23" class="node" pointer-events="visible" data-name="StudentAttendance.revokeBurnerRole">

<ellipse fill="#ffbdb9" stroke="#ffbdb9" stroke-width="3" cx="162.55" cy="-1478" rx="82.23" ry="18" style=""/>
<text text-anchor="middle" x="162.55" y="-1473.8" font-family="Times,serif" font-size="14.00" style="">revokeBurnerRole</text>
</g>
<!-- StudentAttendance.revokeBurnerRole&#45;&gt;StudentAttendance.revokeRole -->
<g id="edge25" class="edge" data-name="StudentAttendance.revokeBurnerRole-&gt;StudentAttendance.revokeRole">

<path fill="none" stroke="#1bc6a6" stroke-width="2" d="M234.24,-1468.03C258.27,-1463.82 285.1,-1458.19 309.1,-1451 341.44,-1441.32 376.47,-1426.5 403.12,-1414.27" style=""/>
<polygon fill="#1bc6a6" stroke="#1bc6a6" stroke-width="2" points="404.4,-1417.53 411.99,-1410.13 401.45,-1411.18 404.4,-1417.53" style=""/>
</g>
<!-- StudentAttendance.checkIsMinter -->
<g id="node24" class="node" pointer-events="visible" data-name="StudentAttendance.checkIsMinter">

<ellipse fill="#ffbdb9" stroke="#ffbdb9" stroke-width="3" cx="162.55" cy="-860" rx="66.62" ry="18" style=""/>
<text text-anchor="middle" x="162.55" y="-855.8" font-family="Times,serif" font-size="14.00" style="">checkIsMinter</text>
</g>
<!-- StudentAttendance.hasRole -->
<g id="node33" class="node" pointer-events="visible" data-name="StudentAttendance.hasRole">

<ellipse fill="#edad56" stroke="#edad56" stroke-width="3" cx="447.84" cy="-860" rx="42.3" ry="18" style=""/>
<text text-anchor="middle" x="447.84" y="-855.8" font-family="Times,serif" font-size="14.00" style="">hasRole</text>
</g>
<!-- StudentAttendance.checkIsMinter&#45;&gt;StudentAttendance.hasRole -->
<g id="edge26" class="edge" data-name="StudentAttendance.checkIsMinter-&gt;StudentAttendance.hasRole">

<path fill="none" stroke="#1bc6a6" stroke-width="2" d="M230.33,-860C279.42,-860 345.34,-860 391.5,-860" style=""/>
<polygon fill="#1bc6a6" stroke="#1bc6a6" stroke-width="2" points="391.24,-863.5 401.24,-860 391.24,-856.5 391.24,-863.5" style=""/>
</g>
<!-- StudentAttendance.checkIsBurner -->
<g id="node25" class="node" pointer-events="visible" data-name="StudentAttendance.checkIsBurner">

<ellipse fill="#ffbdb9" stroke="#ffbdb9" stroke-width="3" cx="162.55" cy="-1084" rx="67.18" ry="18" style=""/>
<text text-anchor="middle" x="162.55" y="-1079.8" font-family="Times,serif" font-size="14.00" style="">checkIsBurner</text>
</g>
<!-- StudentAttendance.checkIsBurner&#45;&gt;StudentAttendance.hasRole -->
<g id="edge27" class="edge" data-name="StudentAttendance.checkIsBurner-&gt;StudentAttendance.hasRole">

<path fill="none" stroke="#1bc6a6" stroke-width="2" d="M230.95,-1082.29C257.03,-1078.98 286.09,-1071.82 309.1,-1057 372.47,-1016.2 414.98,-934.92 434.53,-890.59" style=""/>
<polygon fill="#1bc6a6" stroke="#1bc6a6" stroke-width="2" points="437.64,-892.22 438.35,-881.65 431.2,-889.47 437.64,-892.22" style=""/>
</g>
<!-- StudentAttendance.getMinterMembers -->
<g id="node26" class="node" pointer-events="visible" data-name="StudentAttendance.getMinterMembers">

<ellipse fill="#ffbdb9" stroke="#ffbdb9" stroke-width="3" cx="162.55" cy="-806" rx="85.68" ry="18" style=""/>
<text text-anchor="middle" x="162.55" y="-801.8" font-family="Times,serif" font-size="14.00" style="">getMinterMembers</text>
</g>
<!-- StudentAttendance.getMinterMembers&#45;&gt;StudentAttendance.hasRole -->
<g id="edge31" class="edge" data-name="StudentAttendance.getMinterMembers-&gt;StudentAttendance.hasRole">

<path fill="none" stroke="#1bc6a6" stroke-width="2" d="M244.8,-812.22C265.76,-815.81 288.28,-820.03 309.1,-824 340.68,-830.02 376.29,-837.01 403.39,-843.6" style=""/>
<polygon fill="#1bc6a6" stroke="#1bc6a6" stroke-width="2" points="402.47,-846.97 413.02,-846.05 404.19,-840.19 402.47,-846.97" style=""/>
</g>
<!-- StudentAttendance.getMinterMembers&#45;&gt;StudentAttendance.hasRole -->
<g id="edge33" class="edge" data-name="StudentAttendance.getMinterMembers-&gt;StudentAttendance.hasRole">

<path fill="none" stroke="#1bc6a6" stroke-width="2" d="M210.12,-822.31C238.69,-828.77 276.03,-835.69 309.1,-842 336.32,-847.19 366.52,-853.1 391.7,-857.27" style=""/>
<polygon fill="#1bc6a6" stroke="#1bc6a6" stroke-width="2" points="390.95,-860.69 401.37,-858.81 392.05,-853.78 390.95,-860.69" style=""/>
</g>
<!-- StudentAttendance.getRoleMemberCount -->
<g id="node34" class="node" pointer-events="visible" data-name="StudentAttendance.getRoleMemberCount">

<ellipse fill="#edad56" stroke="#edad56" stroke-width="3" cx="447.84" cy="-806" rx="97.29" ry="18" style=""/>
<text text-anchor="middle" x="447.84" y="-801.8" font-family="Times,serif" font-size="14.00" style="">getRoleMemberCount</text>
</g>
<!-- StudentAttendance.getMinterMembers&#45;&gt;StudentAttendance.getRoleMemberCount -->
<g id="edge28" class="edge" data-name="StudentAttendance.getMinterMembers-&gt;StudentAttendance.getRoleMemberCount">

<path fill="none" stroke="#1bc6a6" stroke-width="2" d="M245.11,-799.82C275.21,-799.21 309.75,-799.09 341.65,-799.45" style=""/>
<polygon fill="#1bc6a6" stroke="#1bc6a6" stroke-width="2" points="341.59,-802.95 351.63,-799.59 341.68,-795.95 341.59,-802.95" style=""/>
</g>
<!-- StudentAttendance.getMinterMembers&#45;&gt;StudentAttendance.getRoleMemberCount -->
<g id="edge29" class="edge" data-name="StudentAttendance.getMinterMembers-&gt;StudentAttendance.getRoleMemberCount">

<path fill="none" stroke="#1bc6a6" stroke-width="2" d="M245.11,-812.18C275.21,-812.79 309.75,-812.91 341.65,-812.55" style=""/>
<polygon fill="#1bc6a6" stroke="#1bc6a6" stroke-width="2" points="341.68,-816.05 351.63,-812.41 341.59,-809.05 341.68,-816.05" style=""/>
</g>
<!-- StudentAttendance.getRoleMember -->
<g id="node35" class="node" pointer-events="visible" data-name="StudentAttendance.getRoleMember">

<ellipse fill="#edad56" stroke="#edad56" stroke-width="3" cx="447.84" cy="-752" rx="73.58" ry="18" style=""/>
<text text-anchor="middle" x="447.84" y="-747.8" font-family="Times,serif" font-size="14.00" style="">getRoleMember</text>
</g>
<!-- StudentAttendance.getMinterMembers&#45;&gt;StudentAttendance.getRoleMember -->
<g id="edge30" class="edge" data-name="StudentAttendance.getMinterMembers-&gt;StudentAttendance.getRoleMember">

<path fill="none" stroke="#1bc6a6" stroke-width="2" d="M210.12,-789.69C238.69,-783.23 276.03,-776.31 309.1,-770 326.72,-766.64 345.59,-762.98 363.53,-759.69" style=""/>
<polygon fill="#1bc6a6" stroke="#1bc6a6" stroke-width="2" points="363.89,-763.18 373.11,-757.95 362.65,-756.29 363.89,-763.18" style=""/>
</g>
<!-- StudentAttendance.getMinterMembers&#45;&gt;StudentAttendance.getRoleMember -->
<g id="edge32" class="edge" data-name="StudentAttendance.getMinterMembers-&gt;StudentAttendance.getRoleMember">

<path fill="none" stroke="#1bc6a6" stroke-width="2" d="M244.8,-799.78C265.76,-796.19 288.28,-791.97 309.1,-788 336.75,-782.73 367.48,-776.72 392.89,-770.88" style=""/>
<polygon fill="#1bc6a6" stroke="#1bc6a6" stroke-width="2" points="393.41,-774.36 402.33,-768.64 391.79,-767.54 393.41,-774.36" style=""/>
</g>
<!-- StudentAttendance.safeTransferFrom -->
<g id="node27" class="node" pointer-events="visible" data-name="StudentAttendance.safeTransferFrom">

<ellipse fill="#ff9797" stroke="#ff9797" stroke-width="3" cx="162.55" cy="-636" rx="80.43" ry="18" style=""/>
<text text-anchor="middle" x="162.55" y="-631.8" font-family="Times,serif" font-size="14.00" style="">safeTransferFrom</text>
</g>
<!-- Ownable.safeTransferFrom -->
<g id="node37" class="node" pointer-events="visible" data-name="Ownable.safeTransferFrom">

<ellipse fill="#edad56" stroke="#edad56" stroke-width="3" cx="447.84" cy="-227" rx="80.43" ry="18" style=""/>
<text text-anchor="middle" x="447.84" y="-222.8" font-family="Times,serif" font-size="14.00" style="">safeTransferFrom</text>
</g>
<!-- StudentAttendance.safeTransferFrom&#45;&gt;Ownable.safeTransferFrom -->
<g id="edge34" class="edge" data-name="StudentAttendance.safeTransferFrom-&gt;Ownable.safeTransferFrom">

<path fill="none" stroke="white" stroke-width="2" d="M243.32,-639.08C267.74,-635.8 292.51,-627.43 309.1,-609 362.06,-550.19 285.88,-314.31 337.1,-254 342.86,-247.22 350.03,-241.99 357.92,-237.98" style=""/>
<polygon fill="white" stroke="white" stroke-width="2" points="359.26,-241.21 367.12,-234.11 356.55,-234.76 359.26,-241.21" style=""/>
</g>
<!-- StudentAttendance.safeBatchTransferFrom -->
<g id="node28" class="node" pointer-events="visible" data-name="StudentAttendance.safeBatchTransferFrom">

<ellipse fill="#ff9797" stroke="#ff9797" stroke-width="3" cx="162.55" cy="-582" rx="102.98" ry="18" style=""/>
<text text-anchor="middle" x="162.55" y="-577.8" font-family="Times,serif" font-size="14.00" style="">safeBatchTransferFrom</text>
</g>
<!-- Ownable.safeBatchTransferFrom -->
<g id="node38" class="node" pointer-events="visible" data-name="Ownable.safeBatchTransferFrom">

<ellipse fill="#edad56" stroke="#edad56" stroke-width="3" cx="447.84" cy="-173" rx="102.98" ry="18" style=""/>
<text text-anchor="middle" x="447.84" y="-168.8" font-family="Times,serif" font-size="14.00" style="">safeBatchTransferFrom</text>
</g>
<!-- StudentAttendance.safeBatchTransferFrom&#45;&gt;Ownable.safeBatchTransferFrom -->
<g id="edge35" class="edge" data-name="StudentAttendance.safeBatchTransferFrom-&gt;Ownable.safeBatchTransferFrom">

<path fill="none" stroke="white" stroke-width="2" d="M266.31,-580.29C282.58,-575.51 297.75,-567.61 309.1,-555 362.06,-496.19 285.88,-260.31 337.1,-200 340.44,-196.07 344.24,-192.67 348.39,-189.72" style=""/>
<polygon fill="white" stroke="white" stroke-width="2" points="349.86,-192.92 356.7,-184.83 346.3,-186.89 349.86,-192.92" style=""/>
</g>
<!-- key -->
<g id="node41" class="node" pointer-events="visible" data-name="key">

<polygon fill="#edad56" stroke="none" stroke-width="3" points="227.55,-1957 97.55,-1957 97.55,-1869 227.55,-1869 227.55,-1957" style=""/>
<text text-anchor="start" x="147.19" y="-1938.4" font-family="Times,serif" font-size="14.00" style="">Internal Call</text>
<text text-anchor="start" x="143.3" y="-1918.4" font-family="Times,serif" font-size="14.00" style="">External Call</text>
<text text-anchor="start" x="120.76" y="-1898.4" font-family="Times,serif" font-size="14.00" style="">Defined Contract</text>
<text text-anchor="start" x="107.15" y="-1878.4" font-family="Times,serif" font-size="14.00" style="">Undefined Contract</text>
</g>
<!-- key2 -->
<g id="node42" class="node" pointer-events="visible" data-name="key2">

<polygon fill="#edad56" stroke="none" stroke-width="3" points="474.84,-1957 420.84,-1957 420.84,-1869 474.84,-1869 474.84,-1957" style=""/>
<text text-anchor="start" x="437.84" y="-1938.4" font-family="Times,serif" font-size="14.00" style="">   </text>
<text text-anchor="start" x="437.84" y="-1918.4" font-family="Times,serif" font-size="14.00" style="">   </text>
<polygon fill="#445773" stroke="none" points="435.84,-1893 435.84,-1913 460.84,-1913 460.84,-1893 435.84,-1893" style=""/>
<text text-anchor="start" x="437.84" y="-1898.4" font-family="Times,serif" font-size="14.00" style="">   </text>
<polygon fill="none" stroke="#e8726d" points="437.84,-1875 437.84,-1891 458.84,-1891 458.84,-1875 437.84,-1875" style=""/>
</g>
<!-- key&#45;&gt;key2 -->
<g id="edge36" class="edge" data-name="key-&gt;key2">

<path fill="none" stroke="#1bc6a6" stroke-width="2" d="M220.55,-1943C311.33,-1943 337.21,-1943 421.91,-1943" style=""/>
<polygon fill="#1bc6a6" stroke="#1bc6a6" stroke-width="2" points="421.82,-1946.5 431.82,-1943 421.82,-1939.5 421.82,-1946.5" style=""/>
</g>
<!-- key&#45;&gt;key2 -->
<g id="edge37" class="edge" data-name="key-&gt;key2">

<path fill="none" stroke="white" stroke-width="2" d="M220.55,-1923C311.33,-1923 337.21,-1923 421.91,-1923" style=""/>
<polygon fill="white" stroke="white" stroke-width="2" points="421.82,-1926.5 431.82,-1923 421.82,-1919.5 421.82,-1926.5" style=""/>
</g>
</g>
</svg>